<?xml version="1.0" standalone="no"?>
<!DOCTYPE svg PUBLIC "-//W3C//DTD SVG 20010904//EN"
 "http://www.w3.org/TR/2001/REC-SVG-20010904/DTD/svg10.dtd">
<svg version="1.0" xmlns="http://www.w3.org/2000/svg"
 width="1176.000000pt" height="1280.000000pt" viewBox="0 0 1176.000000 1280.000000"
 preserveAspectRatio="xMidYMid meet">
<metadata>
Created by potrace 1.15, written by Peter Selinger 2001-2017
</metadata>
<g transform="translate(0.000000,1280.000000) scale(0.100000,-0.100000)"
fill="#000000" stroke="none">
<path d="M8116 12729 c11 -13 54 -62 95 -109 421 -482 670 -966 739 -1437 57
-388 -5 -795 -181 -1195 -103 -234 -225 -449 -474 -833 -82 -126 -180 -282
-219 -345 l-70 -115 1 -115 c0 -94 5 -129 25 -191 64 -195 203 -312 413 -347
l91 -16 124 43 c347 119 622 283 846 506 284 283 436 618 485 1070 14 135 6
463 -16 623 -39 282 -114 592 -187 771 -131 320 -324 661 -471 832 -67 79
-319 318 -409 390 -119 94 -277 193 -558 349 -102 56 -201 111 -220 123 l-35
20 21 -24z"/>
<path d="M3685 12695 c-306 -78 -620 -241 -905 -470 -129 -104 -351 -327 -454
-455 -310 -388 -523 -856 -593 -1300 -14 -91 -18 -173 -18 -395 1 -246 3 -296
24 -414 88 -515 303 -935 657 -1285 174 -172 455 -374 549 -394 194 -42 406
-4 561 100 85 57 133 113 177 205 29 62 32 77 32 163 0 86 -3 101 -30 154 -48
96 -144 188 -346 333 -322 232 -430 343 -528 540 -126 254 -201 611 -201 958
0 620 224 1243 632 1758 129 162 431 453 527 506 34 20 2 18 -84 -4z"/>
<path d="M7110 8754 c-82 -22 -221 -93 -348 -177 l-112 -76 -68 41 c-204 125
-430 188 -670 188 -255 0 -487 -65 -701 -195 l-58 -35 -69 31 c-38 18 -114 47
-169 66 -411 141 -780 136 -945 -13 -54 -49 -65 -76 -95 -227 -54 -271 -163
-382 -440 -452 -55 -14 -104 -27 -109 -28 -5 -2 22 -21 59 -42 84 -49 190
-150 240 -229 107 -168 141 -422 91 -678 l-13 -68 36 -10 c183 -51 481 100
774 393 49 49 90 87 92 85 2 -2 15 -42 29 -89 39 -129 74 -306 91 -469 9 -80
19 -170 23 -200 l7 -55 90 0 c83 0 96 3 160 34 78 39 209 161 287 267 l44 61
0 -181 c0 -218 15 -299 80 -433 60 -126 140 -205 267 -268 50 -24 124 -53 163
-64 l71 -19 -4 112 c-14 320 122 599 389 794 l57 42 104 -84 c162 -130 284
-196 364 -196 62 0 69 10 77 105 13 160 64 308 153 443 45 68 214 246 223 235
4 -5 15 -30 25 -58 26 -75 89 -189 140 -256 117 -151 292 -239 477 -239 l58 0
-6 158 c-11 256 23 451 103 605 46 86 161 210 249 268 l66 43 -89 22 c-230 56
-399 208 -435 391 -14 70 -62 136 -196 265 -159 153 -271 208 -422 207 -47 0
-110 -7 -140 -15z"/>
<path d="M2242 7866 c-183 -35 -347 -104 -739 -310 -665 -348 -958 -458 -1358
-511 -65 -8 -120 -17 -122 -18 -5 -6 142 -37 242 -51 163 -24 301 -28 455 -16
357 28 686 115 1119 295 263 109 403 145 569 145 344 0 596 -218 580 -499 -18
-305 -357 -494 -811 -451 -67 6 -151 17 -187 24 l-65 12 145 7 c418 20 703
129 779 297 67 148 -22 322 -213 415 -105 51 -183 68 -311 67 -135 0 -211 -19
-395 -97 -74 -32 -211 -90 -305 -130 -317 -135 -482 -190 -685 -227 -199 -36
-578 -27 -755 18 -26 7 146 -161 255 -249 643 -519 1386 -675 2214 -466 162
41 358 107 514 174 71 30 141 55 157 55 44 0 260 -39 365 -65 766 -193 1240
-665 1430 -1424 71 -288 95 -514 95 -931 -1 -362 -6 -447 -65 -1055 -21 -220
-42 -435 -45 -478 -8 -88 7 -78 -145 -97 -419 -53 -740 -297 -850 -645 -30
-95 -38 -281 -17 -382 31 -145 93 -263 196 -375 157 -170 402 -283 642 -295
170 -9 339 22 629 115 199 65 252 75 380 75 144 0 226 -16 431 -83 97 -32 234
-74 305 -92 125 -32 135 -33 324 -33 166 1 208 4 282 23 347 86 570 288 658
593 31 105 38 306 16 418 -58 284 -244 511 -476 581 -119 36 -357 71 -521 77
l-156 6 -7 401 c-4 221 -11 505 -16 631 -13 311 -12 1198 0 1365 33 430 160
789 387 1095 288 388 738 645 1125 645 209 0 367 -79 434 -216 24 -50 29 -53
72 -61 78 -13 685 -9 822 5 676 69 1210 268 1695 632 121 91 302 252 396 355
l41 44 -57 -20 c-149 -52 -340 -83 -617 -99 -397 -24 -676 21 -1215 194 -259
83 -350 100 -523 101 -129 0 -151 -3 -202 -23 -72 -29 -145 -94 -183 -164 -27
-48 -30 -61 -30 -148 0 -78 4 -104 24 -147 39 -89 127 -152 262 -190 53 -15
103 -18 304 -18 132 0 269 3 305 7 l65 8 -25 -20 c-38 -31 -119 -67 -201 -90
-57 -17 -112 -23 -236 -27 -173 -6 -281 5 -389 38 -243 75 -357 470 -204 709
84 131 240 204 465 217 125 7 196 -6 512 -93 722 -199 890 -228 1288 -229 266
0 323 5 490 46 146 36 198 59 134 59 -49 0 -342 44 -494 75 -150 30 -275 62
-840 213 -658 176 -948 237 -1250 262 -510 43 -830 -109 -961 -456 -51 -136
-67 -233 -73 -464 l-6 -215 -40 -13 c-51 -18 -173 -9 -275 18 -102 28 -280
117 -363 180 -59 46 -148 147 -159 182 -11 31 -126 -80 -163 -156 -60 -123
-48 -283 34 -444 11 -22 21 -44 21 -47 0 -9 -172 -5 -260 6 -118 14 -193 43
-365 137 -81 45 -153 82 -160 82 -6 0 -39 -17 -71 -38 -214 -138 -298 -433
-204 -714 17 -51 40 -107 51 -124 10 -17 19 -33 19 -36 0 -9 -137 13 -255 42
-198 47 -326 103 -445 195 -143 110 -234 272 -255 450 l-6 61 -86 -29 c-105
-35 -258 -44 -402 -25 l-94 13 2 125 c3 188 -19 344 -70 483 l-22 57 -74 -80
c-170 -183 -366 -274 -618 -287 -105 -5 -297 10 -323 26 -8 5 -2 34 19 96 17
50 37 140 46 202 15 103 15 121 1 209 -29 175 -121 314 -275 415 -120 78 -256
127 -463 165 -121 22 -501 28 -598 10z m2585 -6280 c95 -45 139 -133 131 -266
-6 -92 -29 -142 -94 -199 -76 -67 -185 -81 -279 -37 -49 23 -140 106 -101 92
44 -15 146 -24 186 -15 59 13 86 34 111 85 28 58 24 159 -8 201 -41 56 -77 68
-195 67 -59 0 -105 3 -102 8 8 12 92 60 132 74 62 22 159 17 219 -10z m2598
-6 l50 -24 -75 -6 c-86 -8 -132 -25 -182 -69 -47 -41 -68 -87 -68 -151 0 -60
16 -96 64 -137 39 -35 79 -50 180 -68 l71 -13 -37 -16 c-60 -26 -137 -39 -190
-32 -109 15 -185 75 -213 168 -45 153 18 306 148 358 71 28 181 23 252 -10z"/>
<path d="M8230 6245 c-771 -106 -1189 -639 -1304 -1660 -46 -412 -48 -867 -5
-1582 7 -112 15 -203 18 -203 4 0 26 129 50 288 166 1094 282 1601 460 2016
228 532 550 767 948 694 l64 -12 40 40 c22 21 54 68 72 103 27 55 32 77 35
155 3 81 0 96 -20 131 l-24 40 -119 2 c-66 1 -163 -5 -215 -12z"/>
<path d="M3292 6182 c-11 -26 -26 -77 -32 -113 -15 -86 5 -214 47 -291 l28
-53 115 -6 c372 -21 649 -136 862 -357 333 -346 511 -944 652 -2192 28 -242
45 -363 49 -340 3 19 16 188 27 375 12 187 26 387 32 445 14 145 14 612 -1
740 -49 427 -150 732 -332 1005 -82 123 -236 288 -354 381 -230 179 -533 320
-880 408 -206 53 -190 53 -213 -2z"/>
<path d="M8150 5664 c-274 -75 -520 -352 -634 -712 -22 -69 -56 -230 -56 -263
0 -15 73 -10 156 12 168 43 390 171 534 306 191 180 281 356 283 555 1 54 -3
101 -7 105 -15 15 -218 13 -276 -3z"/>
<path d="M3424 5588 c-17 -26 -6 -240 15 -323 91 -346 370 -597 756 -680 79
-17 356 -27 369 -14 10 10 -70 244 -113 334 -146 301 -380 523 -658 624 -136
50 -353 85 -369 59z"/>
<path d="M8150 4803 c-97 -63 -294 -160 -390 -192 -100 -32 -239 -61 -301 -61
l-55 0 -37 -117 c-21 -65 -40 -133 -43 -150 l-6 -33 93 0 c274 0 483 73 630
219 43 44 91 104 112 141 38 69 90 213 85 236 -2 9 -30 -4 -88 -43z"/>
<path d="M3550 4710 c0 -58 34 -137 85 -202 105 -131 297 -235 525 -284 87
-18 330 -30 413 -20 55 7 57 9 57 37 0 16 -9 67 -21 113 l-21 84 -127 -6
c-276 -11 -547 73 -815 253 l-96 64 0 -39z"/>
<path d="M7730 4168 c-56 -13 -143 -21 -257 -25 -147 -5 -173 -8 -177 -22 -11
-36 -87 -410 -125 -611 -69 -366 -151 -899 -163 -1055 l-3 -40 130 -12 c72 -7
159 -17 195 -22 35 -6 66 -9 67 -7 12 12 163 581 233 876 57 243 139 605 176
785 14 66 27 128 30 138 6 20 5 20 -106 -5z"/>
<path d="M3946 4112 c16 -63 172 -513 256 -736 75 -200 395 -1006 402 -1013 1
-1 23 4 49 12 25 8 97 24 159 36 62 12 116 25 120 28 24 22 -155 1113 -258
1571 l-15 65 -217 0 c-182 0 -236 4 -334 23 -64 12 -128 26 -142 32 -25 9 -26
8 -20 -18z"/>
<path d="M5775 656 c-33 -8 -84 -23 -114 -34 -58 -23 -161 -82 -161 -93 0 -18
101 -93 165 -124 86 -41 152 -55 253 -55 102 0 201 22 287 64 66 32 155 98
155 116 0 13 -150 86 -225 110 -89 28 -272 36 -360 16z"/>
<path d="M6504 489 c-57 -61 -178 -151 -257 -190 -112 -57 -210 -81 -332 -81
-195 -1 -345 62 -489 205 l-90 89 -100 -21 c-55 -12 -102 -24 -104 -26 -2 -2
6 -21 19 -42 125 -207 316 -340 574 -399 117 -28 340 -25 453 4 102 26 185 59
260 103 73 43 217 188 259 259 47 81 49 90 22 90 -13 0 -53 9 -87 20 -84 26
-93 26 -128 -11z"/>
</g>
</svg>
